# xmcd
#
# Track frame offsets:
#       150
#       18003
#       36153
#       52365
#       68813
#       87155
#       103468
#       119413
#       137358
#       155420
#       173220
#       192123
#       214245
#       232385
#       251093
#       266695
#       280368
#       300548
#       310683
#       324100
#
# Disc length: 4497 seconds
#
# Revision: 1
# Processed by: cddbd v1.4PL0 Copyright (c) Steve Scherf et al.
# Submitted via: MusiCat 1.1
#
DISCID=23118f14
DTITLE=Vari - Viva '60 '70 '80 - CD 2
DYEAR=1900
DGENRE=
TTITLE0=Tu mi rubi l'anima-Collage
TTITLE1=Tornero'-I Santo California
TTITLE2=Aldebaran-New Trolls
TTITLE3=Tornerai tornero'-Homo Sapiens
TTITLE4=Anima mia-I Cugini di campagna
TTITLE5=M'innamorai-Il Giardino dei semplici
TTITLE6=L'ora dell'amore-I Camaleonti
TTITLE7=Notte di San Lorenzo-Franco Simone
TTITLE8=Lisa-Stefano Sani
TTITLE9=Mi ritorni in mente-Formula 3
TTITLE10=Era lei-Michele Pecora
TTITLE11=All'improvviso l'incoscienza-Roberto Soffici
TTITLE12=Concerto-Alunni del sole
TTITLE13=Volo AZ 504-Albatros
TTITLE14=Su di noi-Pupo
TTITLE15=Pensiero d'amore-Mal
TTITLE16=Nata libera-Leano Morelli
TTITLE17=Donna felicita'-I Nuovi angeli
TTITLE18=Un'ora sola ti vorrei-The Showmen
TTITLE19=Obladi' oblada'-I Ribelli
EXTD=0\n\n\n
EXTT0=
EXTT1=
EXTT2=
EXTT3=
EXTT4=
EXTT5=
EXTT6=
EXTT7=
EXTT8=
EXTT9=
EXTT10=
EXTT11=
EXTT12=
EXTT13=
EXTT14=
EXTT15=
EXTT16=
EXTT17=
EXTT18=
EXTT19=
PLAYORDER=
